<?xml version="1.0" encoding="utf-8"?>
<!-- Generator: Adobe Illustrator 23.1.0, SVG Export Plug-In . SVG Version: 6.00 Build 0)  -->
<svg version="1.1" xmlns="http://www.w3.org/2000/svg" xmlns:xlink="http://www.w3.org/1999/xlink" x="0px" y="0px"
	 viewBox="0 0 192 192" style="enable-background:new 0 0 192 192;" xml:space="preserve">
<style type="text/css">
	.st0{fill:#FFFFFF;}
	.st1{fill:#8BE2FC;}
	.st2{display:none;fill:#FFFFFF;}
	.st3{display:none;}
</style>
<g id="Layer_3">
	<circle class="st0" cx="98.3" cy="96.3" r="95.3"/>
</g>
<g id="Layer_2">
	<g>
		<path class="st0" d="M110,175.3l20.3-8.2c0.3-0.1,0.5-0.2,0.7-0.4l16.7-11.2c0.2-0.1,0.4-0.3,0.5-0.4l10.2-9.9
			c5.8-5.5,11.2-10.3,12-10.6c2.4-0.9,1.5-4.5-1.5-5.5c-1.6-0.4-3.7-1.8-4.6-3c-1.5-1.8-0.7-3.3,4.6-8.1c3.6-3.1,6.3-6.1,5.8-6.4
			c-0.4-0.4-4.8-1.9-9.6-3.6c-10.8-3.4-13.5-6.7-8.7-10.6c4-3.1,8.4-21,10.8-44.2c3.3-32.8,0.9-41-11.1-38
			c-4.9,1.2-22.3,17.7-29.5,28c-3.4,4.8-7,8.8-7.9,8.8c-0.9,0-6.7-0.7-12.9-1.5c-7.8-1-14.7-1-22.5,0.1l-8.8,1.3
			c-1.5,0.2-2.9-0.4-3.8-1.6L69.2,48c-19-26.4-39.1-40.1-44.3-30.2c-1.2,2.2-1.5,9.9-0.9,25c1,27.4,6,50,12.1,54.8
			c2.1,1.6,3.9,3.6,3.9,4.2c0,1.5-9,5.8-16.3,7.8h0c-2.9,0.7-4,4.4-1.9,6.6l1.6,1.7l3.3,3.4c1.6,1.7,1.4,4.4-0.4,5.8l0,0
			c-1.9,1.5-3.9,2.7-4.5,2.7c-1.6,0-1.5,4.2,0.1,4.8c0.7,0.3,6.1,5.1,12,10.6l10.2,9.9c0.2,0.2,0.3,0.3,0.5,0.4l13.1,8.9
			c0.2,0.1,0.4,0.3,0.6,0.4l23.6,10.5c0.2,0.1,0.3,0.1,0.5,0.2c8.9,2.7,18.3,2.7,27.2,0C109.8,175.4,109.9,175.4,110,175.3z"/>
		<path class="st1" d="M47.3,90.9c-2.5,2.5-2.8,4.2-2.1,10c1.2,9.3,4.9,19.3,7.5,20.4c1.3,0.4,3.7-2.2,6.9-7.8
			c2.5-4.6,7.6-12,11.2-16.2c3.6-4.2,6.1-8.1,5.5-8.5c-0.4-0.6-6.6-1-13.5-1C52.4,87.8,50,88.2,47.3,90.9z"/>
		<path class="st1" d="M106.3,103.4c0.9,8.8,4.2,16.5,7.6,17.8c1.3,0.6,4-2.1,7.8-7.6c3-4.6,8.5-12.4,12.1-17.2l6.6-8.5L128,87.9
			C108.6,88.1,105,90.6,106.3,103.4z"/>
		<path d="M160.2,137.4l-4-1.8c-6.1-2.8-5.1-6.1,1.8-5.1c3,0.4,4.6,0.3,3.6-0.1c-1-0.4-2.8-2.8-4-5.1c-2.1-4.2-2.1-4.3,3.1-7.6
			l5.2-3.3l-6.3-2.7c-3.4-1.6-6.4-2.7-6.4-2.5c-7.8,17.4-10.8,19.5-26.5,19.5c-14.5,0-19.9-3.6-23.1-15c-1.3-4.6-3-10-3.7-12
			c-0.7-1.8-2.5-3.3-3.7-3.3c-2.4,0-4.2,3.4-6,12c-3,14.1-8.4,18.1-24.3,18.3c-13.8,0-17.8-2.4-22.2-13.3l-3-7.3l-7.2,3.1l-7,3.3
			l4.8,3.9l4.9,3.7l-3.6,4.8l-3.6,4.9l4.8-0.9c3.6-0.7,4.6-0.4,4.6,1.3c0,1.3-1.3,2.7-3,3.1c-1.6,0.4-3,1.3-3,1.9
			c0,2.2,17.5,17.1,26.4,22.5c11.5,6.9,26.5,11.8,36.1,12c17.2,0,40-10.8,58-27.6L160.2,137.4z"/>
		<path class="st2" d="M121.6,170.2c-5.7,2.2-11.8,4.6-13.3,5.1c-2.7,0.9-2.7,1,0.1,4.3c1.6,1.8,4.9,6.9,7.3,11.1
			c1.1,2,2.3,3.9,3.2,5.3h3.9c3.8-7,11.5-25.8,11.5-29C134.3,165.2,133.4,165.4,121.6,170.2z"/>
		<path class="st2" d="M173.6,185.1c-2.2,0-2.2,0.3-0.3,1.5c3,1.9,4.9,1.9,3.7,0C176.6,185.7,174.9,185.1,173.6,185.1z"/>
		<path d="M86.4,86.1c9.3,2.5,10.2,2.4,20.2-0.1c7.6-2.1,15.9-2.8,30.2-2.8c17.2,0,19.9-0.3,20.5-2.5c2.7-8.4,5.4-26.1,6.3-39.5
			c1.5-23.1-1.6-27-13.2-16.6c-5.2,4.9-22.3,28.5-24,33.4c-0.3,1.2-1.6,1.2-4.9,0c-12-4.6-43.1-4.5-51.8,0.1
			c-2.1,1-4.3-1.5-12.7-13.9c-5.8-8.7-13.2-17.4-16.8-20.2C29.2,15.5,28,16.5,28,35.2c0,14.2,1.5,27.1,4.6,40.9l1.6,7.2l21.1,0.1
			C70.7,83.4,79.4,84.2,86.4,86.1z"/>
		<path class="st2" d="M109.5,189.6c-0.4,0-1,2.1-1.6,4.5c-0.1,0.6-0.3,1.3-0.4,1.9h6.3C111.5,192.3,109.7,189.6,109.5,189.6z"/>
		<path class="st2" d="M143.3,162.4c0,0.9,0.6,1.9,1.3,2.5c1.6,0.9,9.9,21.7,11.2,28.6c0.2,1,0.4,1.8,0.5,2.4c1.3-0.1,2.7-0.2,4-0.4
			c-1.1-5.1-3.9-13.4-7.4-20.5C147.8,164.8,143.3,158.9,143.3,162.4z"/>
		<path class="st2" d="M78.9,196h6.3c-0.4-1-0.9-2.1-1.3-3.1C82.8,190,82.4,190.1,78.9,196z"/>
		<path class="st2" d="M48.1,161.2c-0.3,0-2.7,3.1-5.1,7c-5.3,8.3-10.2,20.9-10.9,27.4c1.1,0.2,2.3,0.3,3.5,0.3
			c0.6-3.9,5-16.5,9.4-26.3C47,165.1,48.5,161.2,48.1,161.2z"/>
		<path class="st2" d="M84.5,179.7l3.4-3.1l-13.8-5.1c-7.6-2.8-14.4-5.4-15-5.5c-0.7-0.3-1.2,0.1-1.2,0.9c0,3.4,7.7,22.2,11.5,29.1
			h4.2c0.9-1.4,2-3.2,3-5.2C79.1,186.5,82.5,181.5,84.5,179.7z"/>
		<path class="st2" d="M167.4,177.5c-7-1.5-9.3-2.7-10-4.9c-0.4-1.8-2.8-6.3-5.2-10.2l-4.2-7l10.5-10.2c5.8-5.5,11.2-10.3,12-10.6
			c2.4-0.9,1.5-4.5-1.5-5.5c-1.6-0.4-3.7-1.8-4.6-3c-1.5-1.8-0.7-3.3,4.6-8.1c3.6-3.1,6.3-6.1,5.8-6.4c-0.4-0.4-4.8-1.9-9.6-3.6
			c-10.8-3.4-13.5-6.7-8.7-10.6c4-3.1,8.4-21,10.8-44.2c3.3-32.8,0.9-41-11.1-38c-4.9,1.2-22.3,17.7-29.5,28c-3.4,4.8-7,8.8-7.9,8.8
			c-0.9,0-6.7-0.7-12.9-1.5c-7.8-1-14.7-1-22.5,0.1l-11.2,1.6l-3-4.2c-19-26.4-39.1-40.1-44.3-30.2c-1.2,2.2-1.5,9.9-0.9,25
			c1,27.4,6,50,12.1,54.8c2.1,1.6,3.9,3.6,3.9,4.2c0,1.5-9,5.8-16.3,7.8l-6.6,1.6l6.3,6.6l6.3,6.6l-3.4,2.7
			c-1.9,1.5-3.9,2.7-4.5,2.7c-1.6,0-1.5,4.2,0.1,4.8c0.7,0.3,6.1,5.1,12,10.6l10.5,10.2l-4.2,7c-2.4,3.9-4.8,8.5-5.2,10.2
			c-0.7,2.2-2.7,3.6-6.1,4.2c-2.7,0.6-8.5,2.1-12.7,3.3l-7.7,2.2c5.8,7.1,14.2,12.1,23.7,13.4c0.7-6.5,5.6-19.2,10.9-27.4
			c2.4-3.9,4.8-7,5.1-7c0.4,0-1,3.9-3.1,8.5c-4.3,9.8-8.8,22.3-9.4,26.3c0.6,0,1.1,0,1.7,0h32.3c-3.9-7-11.5-25.7-11.5-29.1
			c0-0.7,0.4-1.2,1.2-0.9c0.6,0.1,7.3,2.7,15,5.5l13.8,5.1l-3.4,3.1c-1.9,1.8-5.4,6.7-7.8,11.1c-1,2-2.1,3.8-3,5.2h5.2
			c3.5-5.9,3.9-6,5-3.1c0.4,1,0.8,2.1,1.3,3.1h22.3c0.2-0.6,0.3-1.2,0.4-1.9c0.6-2.4,1.2-4.5,1.6-4.5c0.3,0,2,2.7,4.2,6.4h5.3
			c-0.9-1.4-2.1-3.3-3.2-5.3c-2.4-4.2-5.7-9.3-7.3-11.1c-2.8-3.3-2.8-3.4-0.1-4.3c1.5-0.4,7.6-2.8,13.3-5.1
			c11.8-4.8,12.7-4.9,12.7-3.1c0,3.2-7.7,22-11.5,29h31.9c0.5,0,1.1,0,1.6,0c-0.1-0.6-0.2-1.4-0.5-2.4c-1.3-6.9-9.6-27.7-11.2-28.6
			c-0.7-0.6-1.3-1.6-1.3-2.5c0-3.4,4.5,2.4,9.6,12.7c3.5,7.1,6.4,15.4,7.4,20.5c9-1.3,16.9-5.9,22.6-12.5
			C181.2,180.9,176.5,179.3,167.4,177.5z M34.3,83.3l-1.6-7.2C29.5,62.3,28,49.5,28,35.2c0-18.7,1.2-19.8,12.3-11.4
			c3.6,2.8,10.9,11.5,16.8,20.2C65.5,56.5,67.7,59,69.8,58c8.7-4.6,39.8-4.8,51.8-0.1c3.3,1.2,4.6,1.2,4.9,0
			c1.6-4.9,18.7-28.5,24-33.4c11.5-10.3,14.7-6.4,13.2,16.6c-0.9,13.5-3.6,31.1-6.3,39.5c-0.6,2.2-3.3,2.5-20.5,2.5
			c-14.4,0-22.6,0.7-30.2,2.8c-10,2.5-10.9,2.7-20.2,0.1c-7-1.9-15.7-2.7-31-2.7L34.3,83.3z M140.5,87.8l-6.6,8.5
			c-3.6,4.8-9.1,12.6-12.1,17.2c-3.7,5.5-6.4,8.2-7.8,7.6c-3.4-1.3-6.7-9-7.6-17.8c-1.3-12.7,2.2-15.3,21.7-15.4L140.5,87.8z
			 M70.8,97.4c-3.6,4.2-8.7,11.5-11.2,16.2c-3.1,5.5-5.5,8.2-6.9,7.8c-2.5-1-6.3-11.1-7.5-20.4c-0.7-5.8-0.4-7.5,2.1-10
			c2.7-2.7,5.1-3.1,15.6-3.1c6.9,0,13,0.4,13.5,1C77,89.3,74.4,93.2,70.8,97.4z M95,171.6c-9.6-0.1-24.6-5.1-36.1-12
			c-8.8-5.4-26.4-20.2-26.4-22.5c0-0.6,1.3-1.5,3-1.9c1.6-0.4,3-1.8,3-3.1c0-1.8-1-2.1-4.6-1.3l-4.8,0.9l3.6-4.9l3.6-4.8l-4.9-3.7
			l-4.8-3.9l7-3.3l7.2-3.1l3,7.3c4.3,10.9,8.4,13.3,22.2,13.3c15.9-0.1,21.3-4.2,24.3-18.3c1.8-8.5,3.6-12,6-12c1.2,0,3,1.5,3.7,3.3
			c0.7,1.9,2.4,7.3,3.7,12c3.1,11.4,8.5,15,23.1,15c15.7,0,18.7-2.1,26.5-19.5c0-0.1,3,0.9,6.4,2.5l6.3,2.7l-5.2,3.3
			c-5.2,3.3-5.2,3.4-3.1,7.6c1.2,2.2,3,4.6,4,5.1c1,0.4-0.6,0.6-3.6,0.1c-6.9-1-7.9,2.2-1.8,5.1l4,1.8l-7.3,6.7
			C134.9,160.9,112.2,171.6,95,171.6z M173.3,186.6c-1.9-1.2-1.9-1.5,0.3-1.5c1.3,0,3,0.6,3.4,1.5
			C178.2,188.6,176.3,188.6,173.3,186.6z"/>
		<path class="st3" d="M56,57.1c-4-8.5-10-17.2-11.7-17.2c-0.9,0-1.3,1-0.7,2.2c0.4,1.2,0.1,2.2-0.6,2.2c-2.7,0-1.5,3,1.2,3.1
			c1.5,0,1.8,0.4,0.7,0.9c-2.7,1-2.4,3.4,0.3,3.4c1.2,0,2.2,0.7,2.2,1.6c0,0.7-0.6,1.2-1.3,0.6c-0.7-0.4-1.8-0.1-2.4,0.7
			c-0.4,0.7,0.1,1.5,1.3,1.5c3.1,0,3,1.8-0.4,5.4c-2.8,3.1-3.4,11.8-0.9,11.8c0.9,0,4.6-2.5,8.2-5.7l6.6-5.5L56,57.1z"/>
		<path class="st3" d="M149,73.6c1.3-1.3,1.3-9.7,0-9.7c-0.6,0-1.8-1.5-2.8-3.1c-1.3-2.5-1.2-3.4,0.3-4.5c1.8-1,1.6-1.6-0.1-2.8
			c-1.9-1.2-1.8-1.5,0.7-1.6c1.6,0,2.1-0.4,1.2-0.9c-2.7-1-2.4-3.4,0.3-3.4c1.2,0,2.2-0.7,2.2-1.5c0-0.9-0.6-1.5-1.5-1.5
			c-0.7,0-1-1-0.6-2.2c1.2-3-1.3-2.8-4.2,0.3c-1.3,1.5-4.5,6.4-7,10.9l-4.5,8.4l7.5,6.4C144.7,71.8,148.4,74.2,149,73.6z"/>
		<path class="st3" d="M116.5,152c-8.4,3.6-19.6-1.9-17.4-8.7c0.4-1.6,2.3-5.4,5-9c2.1-2.8,5-4.1,2.3-6c-1.7-0.6-4.5-2-8.7-1.8
			c-5.4,0.2-11.7,1.6-12.3,2.2c-1.3,1.2-0.9,2.1,5.8,10.5c3.4,4.3,3.9,6,2.7,8.2c-3,5.7-13.2,7.6-21.4,4c-4.2-1.8-3.1,1.6,1,3.4
			c5.8,2.7,15,2.2,18.9-1c3.3-2.7,3.6-2.7,7.9,0c5.1,3.1,13.5,3.6,19.8,1.3c3-1.2,3.6-2.1,2.4-3.3
			C121.5,150.7,119.8,150.7,116.5,152z"/>
		<path class="st3" d="M70.7,137.1c-3.1-1.2-6.4-1.3-13-0.3c-6.6,1-4.8,2.8,2.2,2.2l6.3-0.4L62,141c-6.7,3.9-3.7,4.2,4.3,0.6
			C72.6,138.7,73.2,138.1,70.7,137.1z"/>
		<path class="st3" d="M132.1,138.6c6.6-0.1,6.9-0.3,3-1.3c-6.4-1.6-15.4-1.8-16.3-0.1c-0.4,0.7,1.9,2.5,5.5,4
			c3.4,1.5,6.9,3,7.6,3.3c0.7,0.4,0.7-0.1,0.1-1c-0.6-1-2.5-2.4-4.3-3.1C125.4,139.2,126.2,138.9,132.1,138.6z"/>
		<path class="st3" d="M118.8,142.7c-0.4,0.4,1.2,2.2,3.6,3.7c5.5,3.3,7,3.4,4.5,0.3C124.2,143.8,120,141.6,118.8,142.7z"/>
		<path class="st3" d="M72.9,143.9c0-1.6-4-0.4-7.5,2.2c-2.1,1.6-3.1,3-2.5,3C64.6,149.2,72.9,144.8,72.9,143.9z"/>
	</g>
</g>
</svg>
